<svg version="1.1" id="Layer_1" xmlns="http://www.w3.org/2000/svg" x="0" y="0" viewBox="0 0 129.38 143.81" xml:space="preserve"><style>.st0{fill:#f26b24}.st3{fill:none}</style><path class="st0" d="M106.68 7.07H24.52c-6.4 0-11.58 5.18-11.58 11.58l7.18 82.16c0 6.4 5.18 11.58 11.58 11.58h15.56c-.94 0-1.11-1.34-.2-1.57 3.57-.9 8.14-2.05 10.92-3.22 3.61-1.52 5.94-4.99 5.94-8.83V75.76c0-3.71-2.56-6.4-4.7-8.01-.09-.06-.17-.12-.26-.19L22.64 38.92h85.93L72.28 67.56c-2.22 1.61-4.99 4.38-4.99 8.2v23.01c0 3.84 2.33 7.31 5.94 8.83 2.78 1.17 7.35 2.33 10.92 3.22.91.23.74 1.57-.2 1.57h15.56c6.4 0 11.58-5.18 11.58-11.58l7.18-82.16c-.01-6.4-5.19-11.58-11.59-11.58zM26.77 46.45l-.11.11c-.13-.16-.25-.33-.37-.49l.48.38zM21.9 38.5zm6.35-2.91c.57-2.62 1.72-5.05 3.38-7.13l7.13 7.13H28.25zm15.08-1.41l-8.68-8.68a17.58 17.58 0 018.68-3.53v12.21zm8.68 3.74v-.12.12zm-.17-2.33l7.13-7.13c1.67 2.09 2.81 4.51 3.38 7.13H51.84zm-4.55-1.42v-12.2a17.4 17.4 0 018.67 3.53l-8.67 8.67zm19.81 2.64h-2.6l-.07-.61c-.53-4.39-2.64-8.46-5.96-11.47a19.52 19.52 0 00-13.16-5.07c-3.86 0-7.59 1.11-10.79 3.2-.3.2-.6.41-.89.62-.24.18-.48.37-.71.56l-.13.1c-.5.41-1 .87-1.48 1.37l-.28.28c-.16.17-.3.34-.45.51l-.28.32c-.05.06-.08.1-.11.14-.04.05-.07.1-.11.15-.21.26-.41.53-.6.8l-.08.11c-.08.11-.16.22-.23.33-.24.35-.47.72-.68 1.09l-.11.18a17.927 17.927 0 00-2.21 6.78l-.07.62h-3.38l.08-.76c1.17-11.25 10.85-19.73 22.52-19.73s21.35 8.48 22.52 19.73l.08.76h-.82zm17.38-5.39l-2.07 5.34h-1.96l2.3-5.95c-8.5-3.13-17.18-8.32-24.19-16.84l29.21 3.06a2.187 2.187 0 113.92-1.74c.26 1.18-.48 2.35-1.66 2.61-.08.02 0 0-.23.03l26.66 17.13c.01 0-15.37 1.98-31.98-3.64z"/><text transform="translate(20.834 137.172)" class="st0" font-size="24.174" font-family="MachineStd">KOKTEL.RS</text><path class="st3" d="M117.61 324.93c-8.07 0-14.61 6.54-14.61 14.61h1.3c.02-4.57 2.35-8.6 5.88-10.99h.01c.3-.2.61-.39.93-.57.06-.03.11-.06.17-.09.05-.03.11-.06.16-.08l.66-.33c.13-.06.26-.12.39-.17.22-.09.44-.18.67-.26.09-.03.18-.07.27-.1-.09.03-.18.07-.27.1a13.25 13.25 0 0113.46 2.73c2.64 2.42 4.31 5.9 4.33 9.76h1.28c-.01-8.06-6.56-14.61-14.63-14.61zm-6.17 2.88l.66-.33-.66.33z"/><path class="st3" d="M110.18 328.56c.3-.2.61-.39.93-.57-.32.18-.63.36-.93.57zm2.31-1.24c.22-.09.44-.18.67-.26-.22.08-.45.16-.67.26zm6.25.5v8.84l6.29-6.29c-1.81-1.44-4-2.33-6.29-2.55zm-12.87 10.42h8.82l-6.18-6.18a11.87 11.87 0 00-2.64 6.18zm10.64-1.57v-8.85c-2.3.22-4.48 1.11-6.29 2.56l6.29 6.29zm4.05 1.57h8.82a11.79 11.79 0 00-2.64-6.18l-6.18 6.18z"/><path class="st0" d="M113.16 327.06c.09-.03.18-.07.27-.1-.09.02-.18.07-.27.1zm61.13 7.42c-.09.01-.18.03-.26.04.13.22.24.46.29.72a2.17 2.17 0 01-.03-.76zm4.54-.78c.08.17.16.36.2.56-.04-.2-.05-.39-.04-.59-.06 0-.11.01-.16.03zm-67.39-5.89zm-.33.18c.06-.03.11-.06.17-.09-.06.03-.11.06-.17.09zm1.38-.67zm-.39.17zm29.77 3.34c-.1-.04-.21-.09-.31-.13 0 .3-.06.59-.17.86.11-.27.28-.52.48-.73zm27.81 4.15c-.1.01-.2.01-.29.02.05.13.1.26.12.39.02.11.03.23.04.34 0-.26.05-.51.13-.75zm-4.85.21c0 .02.01.04.02.05.01-.02.01-.04.02-.05h-.04zm-31.16-8.92c-.09-.06-.17-.12-.26-.19-.06.23-.14.46-.26.66.14-.18.32-.34.52-.47zm17.11 7.45c-.05-.01-.11-.02-.16-.04.01.17 0 .34-.02.5.05-.16.11-.32.18-.46zm-39.5-5.82zm.82-.41z"/></svg>