<svg version="1.1" id="Layer_1" xmlns="http://www.w3.org/2000/svg" x="0" y="0" viewBox="0 0 113.33 135.56" xml:space="preserve"><style>.st0{fill:#f26b24}.st1{fill:none}</style><path class="st0" d="M97.77 3.18H15.61c-6.4 0-11.58 5.18-11.58 11.58l7.18 82.16c0 6.4 5.18 11.58 11.58 11.58h15.56c-.94 0-1.11-1.34-.2-1.57 3.57-.9 8.14-2.05 10.92-3.22 3.61-1.52 5.94-4.99 5.94-8.83V71.87c0-3.71-2.56-6.4-4.7-8.01-.09-.06-.17-.12-.26-.19L13.73 35.02h85.93l-36.3 28.65c-2.22 1.61-4.99 4.38-4.99 8.2v23.01c0 3.84 2.33 7.31 5.94 8.83 2.78 1.17 7.35 2.33 10.92 3.22.91.23.74 1.57-.2 1.57H90.6c6.4 0 11.58-5.18 11.58-11.58l7.18-82.16c-.01-6.4-5.19-11.58-11.59-11.58zM17.86 42.55l-.11.11c-.13-.16-.25-.33-.37-.49l.48.38zm-4.87-7.95c0 .01 0 .01 0 0 0 .01 0 .01 0 0zm6.35-2.91c.57-2.62 1.72-5.05 3.38-7.13l7.13 7.13H19.34zm15.08-1.4l-8.68-8.68a17.58 17.58 0 018.68-3.53v12.21zm8.68 3.74v-.12.12zm-.17-2.34l7.13-7.13c1.67 2.09 2.81 4.51 3.38 7.13H42.93zm-4.55-1.41v-12.2a17.4 17.4 0 018.67 3.53l-8.67 8.67zm19.81 2.64h-2.6l-.07-.61c-.53-4.39-2.64-8.46-5.96-11.47a19.52 19.52 0 00-13.16-5.07c-3.86 0-7.59 1.11-10.79 3.2-.3.2-.6.41-.89.62-.24.18-.48.37-.71.56l-.13.1c-.5.41-1 .87-1.48 1.37l-.28.28c-.16.17-.3.34-.45.51l-.28.32c-.05.06-.08.1-.11.14-.04.05-.07.1-.11.15-.21.26-.41.53-.6.8l-.08.11c-.08.11-.16.22-.23.33-.24.35-.47.72-.68 1.09l-.11.18a17.927 17.927 0 00-2.21 6.78l-.07.62h-3.38l.08-.76c1.17-11.25 10.85-19.73 22.52-19.73s21.35 8.48 22.52 19.73l.08.76h-.82zm17.38-5.39l-2.07 5.34h-1.96l2.3-5.95c-8.5-3.13-17.18-8.32-24.19-16.84l29.21 3.06c-.16-.23-.29-.5-.35-.79-.25-1.18.49-2.35 1.67-2.61a2.187 2.187 0 11.95 4.27c-.08.02 0 0-.23.03l26.66 17.13s-15.38 1.97-31.99-3.64zm-58.86 95.81h.05l2.61-7.4h4.08l-3.46 8.1 3.99 9.23h-4.33l-2.9-7.4h-.05v7.4h-3.99v-17.33h3.99v7.4zm16.84 7.42l-2.56 2.51h-4.45l-2.63-2.51v-12.3l2.63-2.51h4.28l2.73 2.51v12.3zm-5.65-11.55v10.8h1.67v-10.8H27.9zm11.63 4.13h.05l2.61-7.4h4.08l-3.46 8.1 3.99 9.23h-4.33l-2.9-7.4h-.05v7.4h-3.99v-17.33h3.99v7.4zm15.66-4.13h-2.25v14.07h-3.99v-14.07H46.7v-3.26h8.48v3.26zm8.41 0h-3.36v3.26h2.83v3.26h-2.83v4.28h3.46v3.26h-7.44v-17.33h7.35v3.27zm5.44 10.8h3.6v3.26h-7.59v-17.33h3.99v14.07zm8.56 3.27h-3.99v-3.33h3.99v3.33zM89.13 123l-2.01 1.67 2.01 1.69v6.91h-3.87v-6.91h-1.67v6.91H79.6v-17.33h6.84l2.68 2.51V123zm-5.54-3.79v3.89h1.67v-3.89h-1.67zm14.12-3.26l2.8 2.51v3.07h-3.99v-2.32h-1.64v3.53l2.9.24 2.73 2.51v5.27l-2.61 2.51h-4.42l-2.59-2.51v-3.04h3.99v2.3h1.64v-3.63l-2.85-.22-2.78-2.51v-5.2l2.61-2.51h4.21z"/><path class="st1" d="M113.09 322.04c-8.07 0-14.61 6.54-14.61 14.61h1.3c.02-4.57 2.35-8.6 5.88-10.99h.01c.3-.2.61-.39.93-.57.06-.03.11-.06.17-.09.05-.03.11-.06.16-.08l.66-.33c.13-.06.26-.12.39-.17.22-.09.44-.18.67-.26.09-.03.18-.07.27-.1-.09.03-.18.07-.27.1a13.25 13.25 0 0113.46 2.73c2.64 2.42 4.31 5.9 4.33 9.76h1.28c-.01-8.07-6.56-14.61-14.63-14.61z"/><path class="st1" d="M106.92 324.92l.66-.33c-.22.1-.44.21-.66.33zm-1.26.74zm2.31-1.24c.22-.09.44-.18.67-.26-.22.08-.45.17-.67.26zm6.25.51v8.84l6.29-6.29c-1.81-1.44-4-2.33-6.29-2.55zm-12.87 10.42h8.82l-6.18-6.18c-1.46 1.75-2.37 3.9-2.64 6.18zm10.64-1.57v-8.85c-2.3.22-4.48 1.11-6.29 2.56l6.29 6.29zm4.05 1.57h8.82a11.79 11.79 0 00-2.64-6.18l-6.18 6.18z"/><path class="st0" d="M108.64 324.16c.09-.03.18-.07.27-.1-.09.03-.18.07-.27.1zm61.13 7.43c-.09.01-.18.03-.26.04.13.22.24.46.29.72-.06-.26-.06-.52-.03-.76zm4.54-.79c.08.17.16.36.2.56-.04-.2-.05-.39-.04-.59-.06.01-.11.02-.16.03zm-67.39-5.88zm-.33.17c.06-.03.11-.06.17-.09-.06.03-.11.06-.17.09zm1.38-.67zm-.39.17zm29.77 3.34c-.1-.04-.21-.09-.31-.13 0 .3-.06.59-.17.86.11-.27.27-.52.48-.73zm27.81 4.15c-.1.01-.2.01-.29.02.05.13.1.26.12.39.02.11.03.23.04.34 0-.25.05-.5.13-.75zm-4.85.21c0 .02.01.04.02.05.01-.02.01-.04.02-.05h-.04zm-31.16-8.92c-.09-.06-.17-.12-.26-.19-.06.23-.14.46-.26.66.14-.18.31-.34.52-.47zm17.11 7.45c-.05-.01-.11-.02-.16-.04.01.17 0 .34-.02.5.05-.16.11-.31.18-.46zm-39.5-5.82c.05-.03.11-.06.16-.08-.05.03-.11.06-.16.08zm.82-.41c.13-.06.26-.12.39-.17-.13.06-.26.11-.39.17z"/></svg>